<svg width="449" height="140" viewBox="0 0 449 140" fill="none" xmlns="http://www.w3.org/2000/svg">
<path fill-rule="evenodd" clip-rule="evenodd" d="M81.3842 64.3291L124 32.4271L81.3842 0L81.1203 16.8043H66.2113L41.275 48.4437L34.2824 44.5052C36.5253 42.1859 41.9875 37.3109 45.8928 36.3656L64.4961 12.6032C-67.3035 30.6943 30.1922 209.135 115.16 110.41L87.0573 90.4546L84.0227 93.9992L80.0646 97.8065L76.2384 100.17L74.5232 100.957L72.808 101.745L71.2248 102.401L69.2457 102.927L67.7944 103.32L65.9473 103.583H58.9546L57.6352 103.32L56.4478 103.058L55.1284 102.664L52.6216 101.745L47.7399 99.1193L44.8372 96.7562L41.2749 92.8177L39.1639 89.7981L37.3168 86.1222L36.1294 82.0524L35.7336 80.3457V72.8625L35.8655 71.1558L36.3932 68.6614L37.0529 67.086L37.9765 64.1978L38.9001 62.3598L39.6917 60.9157L40.8791 59.0777L42.4624 57.2398L44.4414 55.2705L46.4205 53.6951L48.9273 51.9884L51.1703 50.8068L53.4132 49.8879L55.92 48.8376L56.9755 48.575L58.5588 48.1812L60.5378 47.9186L61.5933 47.7873H81.1201L81.3842 64.3291ZM112.653 32.1645L88.3767 13.7848V23.6311L68.9818 23.8937L62.6488 32.1645H112.653ZM41.5388 31.3768L42.7262 30.1953L49.6039 21.4148L46.8163 22.0557L43.254 23.4998L40.6152 24.4188L35.8655 26.9132L32.1712 28.8824L28.0812 31.902L22.8037 36.8908L22.012 37.941L27.2895 40.8293L28.0812 41.0918H28.6089L37.0529 34.1338L38.7681 32.9522L40.6152 31.902L41.5388 31.3768ZM22.144 51.4633L25.3105 47.1309L33.0948 51.7258L9.6099 59.3403L11.1931 55.0079L22.144 51.4633ZM22.2759 62.3598L32.567 58.8152C24.6508 72.2586 29.4445 87.0849 32.8309 92.8177L22.2759 89.1417C19.8483 81.7898 21.2644 68.2238 22.2759 62.3598ZM15.2832 87.3037C14.2277 78.6915 14.8434 68.4864 15.2832 64.4604L7.63083 66.8235C6.36423 73.2301 7.10308 81.571 7.63083 84.9406L15.2832 87.3037ZM29.0047 102.27L33.2267 99.3819L8.95021 91.8987L10.7973 96.4936L29.0047 102.27ZM40.7472 102.27L34.2822 106.209L56.4478 121.438L50.1148 123.932C46.6316 122.462 33.8864 115.136 28.0812 109.753L21.6162 113.954C26.6826 121.621 41.6707 128.002 48.5315 130.234L67.7944 120.65L40.7472 102.27ZM73.7316 124.982L59.4823 131.94C69.1929 132.57 77.5138 130.54 80.4604 129.446L73.7316 124.982ZM80.4604 121.438C82.7913 123.188 87.6114 126.715 88.2447 126.82C100.911 118.523 105.397 113.21 106.056 111.591L99.4594 107.653C96.0818 113.009 85.3861 119.074 80.4604 121.438ZM64.7598 110.541L74.5232 117.63C88.9836 110.278 93.8301 105.202 94.4458 103.583L88.2447 99.1193C83.3894 106.891 70.5651 109.972 64.7598 110.541Z" fill="url(#paint0_linear_4_27)"/>
<path d="M150.736 80.624C147.928 80.624 145.311 80.1733 142.884 79.272C140.492 78.336 138.412 77.0187 136.644 75.32C134.876 73.6213 133.489 71.628 132.484 69.34C131.513 67.052 131.028 64.5387 131.028 61.8C131.028 59.0613 131.513 56.548 132.484 54.26C133.489 51.972 134.876 49.9787 136.644 48.28C138.447 46.5813 140.544 45.2813 142.936 44.38C145.328 43.444 147.945 42.976 150.788 42.976C153.943 42.976 156.785 43.5307 159.316 44.64C161.881 45.7147 164.031 47.3093 165.764 49.424L160.356 54.416C159.108 52.9947 157.721 51.9373 156.196 51.244C154.671 50.516 153.007 50.152 151.204 50.152C149.505 50.152 147.945 50.4293 146.524 50.984C145.103 51.5387 143.872 52.336 142.832 53.376C141.792 54.416 140.977 55.6467 140.388 57.068C139.833 58.4893 139.556 60.0667 139.556 61.8C139.556 63.5333 139.833 65.1107 140.388 66.532C140.977 67.9533 141.792 69.184 142.832 70.224C143.872 71.264 145.103 72.0613 146.524 72.616C147.945 73.1707 149.505 73.448 151.204 73.448C153.007 73.448 154.671 73.1013 156.196 72.408C157.721 71.68 159.108 70.588 160.356 69.132L165.764 74.124C164.031 76.2387 161.881 77.8507 159.316 78.96C156.785 80.0693 153.925 80.624 150.736 80.624ZM183.8 80.416C180.611 80.416 177.803 79.792 175.376 78.544C172.984 77.296 171.129 75.5973 169.812 73.448C168.495 71.264 167.836 68.7853 167.836 66.012C167.836 63.204 168.477 60.7253 169.76 58.576C171.077 56.392 172.863 54.6933 175.116 53.48C177.369 52.232 179.917 51.608 182.76 51.608C185.499 51.608 187.96 52.1973 190.144 53.376C192.363 54.52 194.113 56.184 195.396 58.368C196.679 60.5173 197.32 63.1 197.32 66.116C197.32 66.428 197.303 66.792 197.268 67.208C197.233 67.5893 197.199 67.9533 197.164 68.3H174.44V63.568H192.9L189.78 64.972C189.78 63.516 189.485 62.2507 188.896 61.176C188.307 60.1013 187.492 59.2693 186.452 58.68C185.412 58.056 184.199 57.744 182.812 57.744C181.425 57.744 180.195 58.056 179.12 58.68C178.08 59.2693 177.265 60.1187 176.676 61.228C176.087 62.3027 175.792 63.5853 175.792 65.076V66.324C175.792 67.8493 176.121 69.2013 176.78 70.38C177.473 71.524 178.427 72.408 179.64 73.032C180.888 73.6213 182.344 73.916 184.008 73.916C185.499 73.916 186.799 73.6907 187.908 73.24C189.052 72.7893 190.092 72.1133 191.028 71.212L195.344 75.892C194.061 77.348 192.449 78.4747 190.508 79.272C188.567 80.0347 186.331 80.416 183.8 80.416ZM202.721 80V41.416H210.833V80H202.721ZM232.245 80.416C229.056 80.416 226.248 79.792 223.821 78.544C221.429 77.296 219.575 75.5973 218.257 73.448C216.94 71.264 216.281 68.7853 216.281 66.012C216.281 63.204 216.923 60.7253 218.205 58.576C219.523 56.392 221.308 54.6933 223.561 53.48C225.815 52.232 228.363 51.608 231.205 51.608C233.944 51.608 236.405 52.1973 238.589 53.376C240.808 54.52 242.559 56.184 243.841 58.368C245.124 60.5173 245.765 63.1 245.765 66.116C245.765 66.428 245.748 66.792 245.713 67.208C245.679 67.5893 245.644 67.9533 245.609 68.3H222.885V63.568H241.345L238.225 64.972C238.225 63.516 237.931 62.2507 237.341 61.176C236.752 60.1013 235.937 59.2693 234.897 58.68C233.857 58.056 232.644 57.744 231.257 57.744C229.871 57.744 228.64 58.056 227.565 58.68C226.525 59.2693 225.711 60.1187 225.121 61.228C224.532 62.3027 224.237 63.5853 224.237 65.076V66.324C224.237 67.8493 224.567 69.2013 225.225 70.38C225.919 71.524 226.872 72.408 228.085 73.032C229.333 73.6213 230.789 73.916 232.453 73.916C233.944 73.916 235.244 73.6907 236.353 73.24C237.497 72.7893 238.537 72.1133 239.473 71.212L243.789 75.892C242.507 77.348 240.895 78.4747 238.953 79.272C237.012 80.0347 234.776 80.416 232.245 80.416ZM251.166 80V52.024H258.914V59.928L257.822 57.64C258.654 55.664 259.989 54.1733 261.826 53.168C263.663 52.128 265.899 51.608 268.534 51.608V59.096C268.187 59.0613 267.875 59.044 267.598 59.044C267.321 59.0093 267.026 58.992 266.714 58.992C264.495 58.992 262.693 59.6333 261.306 60.916C259.954 62.164 259.278 64.1227 259.278 66.792V80H251.166ZM273.408 80V52.024H281.52V80H273.408ZM277.464 48.124C275.973 48.124 274.76 47.6907 273.824 46.824C272.888 45.9573 272.42 44.8827 272.42 43.6C272.42 42.3173 272.888 41.2427 273.824 40.376C274.76 39.5093 275.973 39.076 277.464 39.076C278.955 39.076 280.168 39.492 281.104 40.324C282.04 41.1213 282.508 42.1613 282.508 43.444C282.508 44.796 282.04 45.9227 281.104 46.824C280.203 47.6907 278.989 48.124 277.464 48.124ZM298.461 80.416C296.069 80.416 293.763 80.1387 291.545 79.584C289.361 78.9947 287.627 78.2667 286.345 77.4L289.049 71.576C290.331 72.3733 291.839 73.032 293.573 73.552C295.341 74.0373 297.074 74.28 298.773 74.28C300.645 74.28 301.962 74.0547 302.725 73.604C303.522 73.1533 303.921 72.5293 303.921 71.732C303.921 71.0733 303.609 70.588 302.985 70.276C302.395 69.9293 301.598 69.6693 300.593 69.496C299.587 69.3227 298.478 69.1493 297.265 68.976C296.086 68.8027 294.89 68.5773 293.677 68.3C292.463 67.988 291.354 67.5373 290.349 66.948C289.343 66.3587 288.529 65.5613 287.905 64.556C287.315 63.5507 287.021 62.2507 287.021 60.656C287.021 58.888 287.523 57.328 288.529 55.976C289.569 54.624 291.059 53.5667 293.001 52.804C294.942 52.0067 297.265 51.608 299.969 51.608C301.875 51.608 303.817 51.816 305.793 52.232C307.769 52.648 309.415 53.2547 310.733 54.052L308.029 59.824C306.677 59.0267 305.307 58.4893 303.921 58.212C302.569 57.9 301.251 57.744 299.969 57.744C298.166 57.744 296.849 57.9867 296.017 58.472C295.185 58.9573 294.769 59.5813 294.769 60.344C294.769 61.0373 295.063 61.5573 295.653 61.904C296.277 62.2507 297.091 62.528 298.097 62.736C299.102 62.944 300.194 63.1347 301.373 63.308C302.586 63.4467 303.799 63.672 305.013 63.984C306.226 64.296 307.318 64.7467 308.289 65.336C309.294 65.8907 310.109 66.6707 310.733 67.676C311.357 68.6467 311.669 69.9293 311.669 71.524C311.669 73.2573 311.149 74.8 310.109 76.152C309.069 77.4693 307.561 78.5093 305.585 79.272C303.643 80.0347 301.269 80.416 298.461 80.416ZM334.666 80.312C331.927 80.312 329.396 79.8613 327.074 78.96C324.751 78.024 322.74 76.724 321.042 75.06C319.343 73.396 318.008 71.4373 317.038 69.184C316.102 66.9307 315.634 64.4693 315.634 61.8C315.634 59.1307 316.102 56.6693 317.038 54.416C318.008 52.1627 319.343 50.204 321.042 48.54C322.775 46.876 324.803 45.5933 327.126 44.692C329.448 43.756 331.979 43.288 334.718 43.288C337.352 43.288 339.831 43.7387 342.154 44.64C344.476 45.5067 346.435 46.824 348.03 48.592L345.586 51.036C344.095 49.5107 342.448 48.4187 340.646 47.76C338.843 47.0667 336.902 46.72 334.822 46.72C332.638 46.72 330.61 47.1013 328.738 47.864C326.866 48.592 325.236 49.6493 323.85 51.036C322.463 52.388 321.371 53.9827 320.574 55.82C319.811 57.6227 319.43 59.616 319.43 61.8C319.43 63.984 319.811 65.9947 320.574 67.832C321.371 69.6347 322.463 71.2293 323.85 72.616C325.236 73.968 326.866 75.0253 328.738 75.788C330.61 76.516 332.638 76.88 334.822 76.88C336.902 76.88 338.843 76.5333 340.646 75.84C342.448 75.1467 344.095 74.0373 345.586 72.512L348.03 74.956C346.435 76.724 344.476 78.0587 342.154 78.96C339.831 79.8613 337.335 80.312 334.666 80.312ZM365.362 80.26C362.727 80.26 360.353 79.6707 358.238 78.492C356.158 77.2787 354.511 75.632 353.298 73.552C352.085 71.4373 351.478 69.028 351.478 66.324C351.478 63.5853 352.085 61.176 353.298 59.096C354.511 57.016 356.158 55.3867 358.238 54.208C360.318 53.0293 362.693 52.44 365.362 52.44C368.066 52.44 370.458 53.0293 372.538 54.208C374.653 55.3867 376.299 57.016 377.478 59.096C378.691 61.176 379.298 63.5853 379.298 66.324C379.298 69.028 378.691 71.4373 377.478 73.552C376.299 75.632 374.653 77.2787 372.538 78.492C370.423 79.6707 368.031 80.26 365.362 80.26ZM365.362 76.984C367.338 76.984 369.089 76.5507 370.614 75.684C372.139 74.7827 373.335 73.5347 374.202 71.94C375.103 70.3107 375.554 68.4387 375.554 66.324C375.554 64.1747 375.103 62.3027 374.202 60.708C373.335 59.1133 372.139 57.8827 370.614 57.016C369.089 56.1147 367.355 55.664 365.414 55.664C363.473 55.664 361.739 56.1147 360.214 57.016C358.689 57.8827 357.475 59.1133 356.574 60.708C355.673 62.3027 355.222 64.1747 355.222 66.324C355.222 68.4387 355.673 70.3107 356.574 71.94C357.475 73.5347 358.689 74.7827 360.214 75.684C361.739 76.5507 363.455 76.984 365.362 76.984ZM397.704 80.26C395.104 80.26 392.764 79.6707 390.684 78.492C388.638 77.3133 387.026 75.684 385.848 73.604C384.669 71.4893 384.08 69.0627 384.08 66.324C384.08 63.5507 384.669 61.124 385.848 59.044C387.026 56.964 388.638 55.352 390.684 54.208C392.764 53.0293 395.104 52.44 397.704 52.44C400.096 52.44 402.228 52.9773 404.1 54.052C406.006 55.1267 407.514 56.704 408.624 58.784C409.768 60.8293 410.339 63.3427 410.339 66.324C410.339 69.2707 409.785 71.784 408.676 73.864C407.566 75.944 406.058 77.5387 404.152 78.648C402.28 79.7227 400.13 80.26 397.704 80.26ZM397.964 76.984C399.905 76.984 401.638 76.5507 403.164 75.684C404.724 74.7827 405.937 73.5347 406.804 71.94C407.705 70.3107 408.156 68.4387 408.156 66.324C408.156 64.1747 407.705 62.3027 406.804 60.708C405.937 59.1133 404.724 57.8827 403.164 57.016C401.638 56.1147 399.905 55.664 397.964 55.664C396.057 55.664 394.341 56.1147 392.816 57.016C391.29 57.8827 390.077 59.1133 389.176 60.708C388.274 62.3027 387.824 64.1747 387.824 66.324C387.824 68.4387 388.274 70.3107 389.176 71.94C390.077 73.5347 391.29 74.7827 392.816 75.684C394.341 76.5507 396.057 76.984 397.964 76.984ZM408.26 80V71.784L408.624 66.272L408.104 60.76V41.416H411.796V80H408.26ZM433.674 80.26C430.831 80.26 428.335 79.6707 426.186 78.492C424.036 77.2787 422.355 75.632 421.142 73.552C419.928 71.4373 419.322 69.028 419.322 66.324C419.322 63.62 419.894 61.228 421.038 59.148C422.216 57.068 423.811 55.4387 425.822 54.26C427.867 53.0467 430.155 52.44 432.686 52.44C435.251 52.44 437.522 53.0293 439.498 54.208C441.508 55.352 443.086 56.9813 444.23 59.096C445.374 61.176 445.946 63.5853 445.946 66.324C445.946 66.4973 445.928 66.688 445.894 66.896C445.894 67.0693 445.894 67.26 445.894 67.468H422.13V64.712H443.918L442.462 65.804C442.462 63.828 442.028 62.0773 441.162 60.552C440.33 58.992 439.186 57.7787 437.73 56.912C436.274 56.0453 434.592 55.612 432.686 55.612C430.814 55.612 429.132 56.0453 427.642 56.912C426.151 57.7787 424.99 58.992 424.158 60.552C423.326 62.112 422.91 63.8973 422.91 65.908V66.48C422.91 68.56 423.36 70.3973 424.262 71.992C425.198 73.552 426.48 74.7827 428.11 75.684C429.774 76.5507 431.663 76.984 433.778 76.984C435.442 76.984 436.984 76.6893 438.406 76.1C439.862 75.5107 441.11 74.6093 442.15 73.396L444.23 75.788C443.016 77.244 441.491 78.3533 439.654 79.116C437.851 79.8787 435.858 80.26 433.674 80.26Z" fill="white"/>
<path d="M130.47 107V97.2H131.87V107H130.47ZM136.204 107V97.2H137.352L143.834 105.25H143.232V97.2H144.632V107H143.484L137.002 98.95H137.604V107H136.204ZM153.389 107.112C152.633 107.112 151.938 106.991 151.303 106.748C150.669 106.496 150.118 106.146 149.651 105.698C149.185 105.241 148.821 104.709 148.559 104.102C148.298 103.495 148.167 102.828 148.167 102.1C148.167 101.372 148.298 100.705 148.559 100.098C148.821 99.4913 149.185 98.964 149.651 98.516C150.127 98.0587 150.683 97.7087 151.317 97.466C151.952 97.214 152.652 97.088 153.417 97.088C154.192 97.088 154.901 97.214 155.545 97.466C156.189 97.718 156.735 98.096 157.183 98.6L156.315 99.468C155.914 99.076 155.475 98.7913 154.999 98.614C154.533 98.4273 154.024 98.334 153.473 98.334C152.913 98.334 152.391 98.4273 151.905 98.614C151.429 98.8007 151.014 99.062 150.659 99.398C150.314 99.734 150.043 100.135 149.847 100.602C149.661 101.059 149.567 101.559 149.567 102.1C149.567 102.632 149.661 103.131 149.847 103.598C150.043 104.055 150.314 104.457 150.659 104.802C151.014 105.138 151.429 105.399 151.905 105.586C152.381 105.773 152.899 105.866 153.459 105.866C153.982 105.866 154.481 105.787 154.957 105.628C155.443 105.46 155.891 105.185 156.301 104.802L157.099 105.866C156.614 106.277 156.045 106.589 155.391 106.804C154.747 107.009 154.08 107.112 153.389 107.112ZM155.755 105.684V102.044H157.099V105.866L155.755 105.684ZM162.454 101.428H167.494V102.618H162.454V101.428ZM162.58 105.782H168.292V107H161.18V97.2H168.096V98.418H162.58V105.782ZM171.959 107V97.2H173.107L179.589 105.25H178.987V97.2H180.387V107H179.239L172.757 98.95H173.359V107H171.959ZM184.72 107V97.2H186.12V107H184.72ZM191.728 101.428H196.768V102.618H191.728V101.428ZM191.854 105.782H197.566V107H190.454V97.2H197.37V98.418H191.854V105.782ZM201.233 107V97.2H205.055C205.914 97.2 206.646 97.3353 207.253 97.606C207.86 97.8767 208.326 98.2687 208.653 98.782C208.98 99.2953 209.143 99.9067 209.143 100.616C209.143 101.325 208.98 101.937 208.653 102.45C208.326 102.954 207.86 103.341 207.253 103.612C206.646 103.883 205.914 104.018 205.055 104.018H202.003L202.633 103.374V107H201.233ZM207.785 107L205.293 103.444H206.791L209.311 107H207.785ZM202.633 103.514L202.003 102.828H205.013C205.909 102.828 206.586 102.637 207.043 102.254C207.51 101.862 207.743 101.316 207.743 100.616C207.743 99.916 207.51 99.3747 207.043 98.992C206.586 98.6093 205.909 98.418 205.013 98.418H202.003L202.633 97.718V103.514ZM212.805 107V97.2H214.205V107H212.805ZM217.055 107L221.493 97.2H222.879L227.331 107H225.861L221.899 97.984H222.459L218.497 107H217.055ZM218.945 104.55L219.323 103.43H224.839L225.245 104.55H218.945ZM237.606 107L234.33 97.2H235.772L238.782 106.244H238.054L241.176 97.2H242.464L245.516 106.244H244.816L247.868 97.2H249.198L245.922 107H244.452L241.596 98.614H241.974L239.104 107H237.606ZM253.585 101.428H258.625V102.618H253.585V101.428ZM253.711 105.782H259.423V107H252.311V97.2H259.227V98.418H253.711V105.782ZM263.09 107V97.2H267.486C268.615 97.2 269.483 97.4287 270.09 97.886C270.697 98.334 271 98.95 271 99.734C271 100.266 270.879 100.714 270.636 101.078C270.403 101.442 270.085 101.722 269.684 101.918C269.283 102.114 268.849 102.212 268.382 102.212L268.634 101.792C269.194 101.792 269.689 101.89 270.118 102.086C270.547 102.282 270.888 102.571 271.14 102.954C271.392 103.327 271.518 103.794 271.518 104.354C271.518 105.194 271.201 105.847 270.566 106.314C269.941 106.771 269.007 107 267.766 107H263.09ZM264.49 105.866H267.71C268.485 105.866 269.077 105.735 269.488 105.474C269.899 105.213 270.104 104.802 270.104 104.242C270.104 103.673 269.899 103.257 269.488 102.996C269.077 102.735 268.485 102.604 267.71 102.604H264.364V101.47H267.36C268.069 101.47 268.62 101.339 269.012 101.078C269.404 100.817 269.6 100.425 269.6 99.902C269.6 99.3793 269.404 98.9873 269.012 98.726C268.62 98.4647 268.069 98.334 267.36 98.334H264.49V105.866ZM282.611 107V103.248L282.933 104.116L278.719 97.2H280.217L283.759 103.038H282.947L286.503 97.2H287.889L283.689 104.116L283.997 103.248V107H282.611ZM298.726 107.112C297.979 107.112 297.265 107 296.584 106.776C295.902 106.543 295.366 106.244 294.974 105.88L295.492 104.788C295.865 105.115 296.341 105.385 296.92 105.6C297.498 105.815 298.1 105.922 298.726 105.922C299.295 105.922 299.757 105.857 300.112 105.726C300.466 105.595 300.728 105.418 300.896 105.194C301.064 104.961 301.148 104.699 301.148 104.41C301.148 104.074 301.036 103.803 300.812 103.598C300.597 103.393 300.312 103.229 299.958 103.108C299.612 102.977 299.23 102.865 298.81 102.772C298.39 102.679 297.965 102.571 297.536 102.45C297.116 102.319 296.728 102.156 296.374 101.96C296.028 101.764 295.748 101.503 295.534 101.176C295.319 100.84 295.212 100.411 295.212 99.888C295.212 99.384 295.342 98.922 295.604 98.502C295.874 98.0727 296.285 97.732 296.836 97.48C297.396 97.2187 298.105 97.088 298.964 97.088C299.533 97.088 300.098 97.1627 300.658 97.312C301.218 97.4613 301.703 97.676 302.114 97.956L301.652 99.076C301.232 98.796 300.788 98.5953 300.322 98.474C299.855 98.3433 299.402 98.278 298.964 98.278C298.413 98.278 297.96 98.348 297.606 98.488C297.251 98.628 296.99 98.8147 296.822 99.048C296.663 99.2813 296.584 99.5427 296.584 99.832C296.584 100.177 296.691 100.453 296.906 100.658C297.13 100.863 297.414 101.027 297.76 101.148C298.114 101.269 298.502 101.381 298.922 101.484C299.342 101.577 299.762 101.685 300.182 101.806C300.611 101.927 300.998 102.086 301.344 102.282C301.698 102.478 301.983 102.739 302.198 103.066C302.412 103.393 302.52 103.813 302.52 104.326C302.52 104.821 302.384 105.283 302.114 105.712C301.843 106.132 301.423 106.473 300.854 106.734C300.294 106.986 299.584 107.112 298.726 107.112ZM305.965 107V97.2H307.365V107H305.965ZM314.555 107.112C313.808 107.112 313.094 107 312.413 106.776C311.732 106.543 311.195 106.244 310.803 105.88L311.321 104.788C311.694 105.115 312.17 105.385 312.749 105.6C313.328 105.815 313.93 105.922 314.555 105.922C315.124 105.922 315.586 105.857 315.941 105.726C316.296 105.595 316.557 105.418 316.725 105.194C316.893 104.961 316.977 104.699 316.977 104.41C316.977 104.074 316.865 103.803 316.641 103.598C316.426 103.393 316.142 103.229 315.787 103.108C315.442 102.977 315.059 102.865 314.639 102.772C314.219 102.679 313.794 102.571 313.365 102.45C312.945 102.319 312.558 102.156 312.203 101.96C311.858 101.764 311.578 101.503 311.363 101.176C311.148 100.84 311.041 100.411 311.041 99.888C311.041 99.384 311.172 98.922 311.433 98.502C311.704 98.0727 312.114 97.732 312.665 97.48C313.225 97.2187 313.934 97.088 314.793 97.088C315.362 97.088 315.927 97.1627 316.487 97.312C317.047 97.4613 317.532 97.676 317.943 97.956L317.481 99.076C317.061 98.796 316.618 98.5953 316.151 98.474C315.684 98.3433 315.232 98.278 314.793 98.278C314.242 98.278 313.79 98.348 313.435 98.488C313.08 98.628 312.819 98.8147 312.651 99.048C312.492 99.2813 312.413 99.5427 312.413 99.832C312.413 100.177 312.52 100.453 312.735 100.658C312.959 100.863 313.244 101.027 313.589 101.148C313.944 101.269 314.331 101.381 314.751 101.484C315.171 101.577 315.591 101.685 316.011 101.806C316.44 101.927 316.828 102.086 317.173 102.282C317.528 102.478 317.812 102.739 318.027 103.066C318.242 103.393 318.349 103.813 318.349 104.326C318.349 104.821 318.214 105.283 317.943 105.712C317.672 106.132 317.252 106.473 316.683 106.734C316.123 106.986 315.414 107.112 314.555 107.112ZM323.604 107V98.418H320.244V97.2H328.35V98.418H324.99V107H323.604ZM332.548 101.428H337.588V102.618H332.548V101.428ZM332.674 105.782H338.386V107H331.274V97.2H338.19V98.418H332.674V105.782ZM342.053 107V97.2H343.201L347.597 104.606H346.981L351.321 97.2H352.469L352.483 107H351.139L351.125 99.314H351.447L347.583 105.81H346.939L343.047 99.314H343.397V107H342.053ZM355.34 107L359.778 97.2H361.164L365.616 107H364.146L360.184 97.984H360.744L356.782 107H355.34ZM357.23 104.55L357.608 103.43H363.124L363.53 104.55H357.23ZM371.334 107.112C370.588 107.112 369.874 107 369.192 106.776C368.511 106.543 367.974 106.244 367.582 105.88L368.1 104.788C368.474 105.115 368.95 105.385 369.528 105.6C370.107 105.815 370.709 105.922 371.334 105.922C371.904 105.922 372.366 105.857 372.72 105.726C373.075 105.595 373.336 105.418 373.504 105.194C373.672 104.961 373.756 104.699 373.756 104.41C373.756 104.074 373.644 103.803 373.42 103.598C373.206 103.393 372.921 103.229 372.566 103.108C372.221 102.977 371.838 102.865 371.418 102.772C370.998 102.679 370.574 102.571 370.144 102.45C369.724 102.319 369.337 102.156 368.982 101.96C368.637 101.764 368.357 101.503 368.142 101.176C367.928 100.84 367.82 100.411 367.82 99.888C367.82 99.384 367.951 98.922 368.212 98.502C368.483 98.0727 368.894 97.732 369.444 97.48C370.004 97.2187 370.714 97.088 371.572 97.088C372.142 97.088 372.706 97.1627 373.266 97.312C373.826 97.4613 374.312 97.676 374.722 97.956L374.26 99.076C373.84 98.796 373.397 98.5953 372.93 98.474C372.464 98.3433 372.011 98.278 371.572 98.278C371.022 98.278 370.569 98.348 370.214 98.488C369.86 98.628 369.598 98.8147 369.43 99.048C369.272 99.2813 369.192 99.5427 369.192 99.832C369.192 100.177 369.3 100.453 369.514 100.658C369.738 100.863 370.023 101.027 370.368 101.148C370.723 101.269 371.11 101.381 371.53 101.484C371.95 101.577 372.37 101.685 372.79 101.806C373.22 101.927 373.607 102.086 373.952 102.282C374.307 102.478 374.592 102.739 374.806 103.066C375.021 103.393 375.128 103.813 375.128 104.326C375.128 104.821 374.993 105.283 374.722 105.712C374.452 106.132 374.032 106.473 373.462 106.734C372.902 106.986 372.193 107.112 371.334 107.112ZM382.249 107L386.687 97.2H388.073L392.525 107H391.055L387.093 97.984H387.653L383.691 107H382.249ZM384.139 104.55L384.517 103.43H390.033L390.439 104.55H384.139ZM386.337 96.402L388.241 94.582H389.949L387.597 96.402H386.337ZM399.674 107.112C398.918 107.112 398.223 106.991 397.588 106.748C396.954 106.496 396.403 106.146 395.936 105.698C395.47 105.241 395.106 104.709 394.844 104.102C394.583 103.495 394.452 102.828 394.452 102.1C394.452 101.372 394.583 100.705 394.844 100.098C395.106 99.4913 395.47 98.964 395.936 98.516C396.412 98.0587 396.968 97.7087 397.602 97.466C398.237 97.214 398.937 97.088 399.702 97.088C400.477 97.088 401.186 97.214 401.83 97.466C402.474 97.718 403.02 98.096 403.468 98.6L402.6 99.468C402.199 99.076 401.76 98.7913 401.284 98.614C400.818 98.4273 400.309 98.334 399.758 98.334C399.198 98.334 398.676 98.4273 398.19 98.614C397.714 98.8007 397.299 99.062 396.944 99.398C396.599 99.734 396.328 100.135 396.132 100.602C395.946 101.059 395.852 101.559 395.852 102.1C395.852 102.632 395.946 103.131 396.132 103.598C396.328 104.055 396.599 104.457 396.944 104.802C397.299 105.138 397.714 105.399 398.19 105.586C398.666 105.773 399.184 105.866 399.744 105.866C400.267 105.866 400.766 105.787 401.242 105.628C401.728 105.46 402.176 105.185 402.586 104.802L403.384 105.866C402.899 106.277 402.33 106.589 401.676 106.804C401.032 107.009 400.365 107.112 399.674 107.112ZM402.04 105.684V102.044H403.384V105.866L402.04 105.684ZM407.465 107V97.2H408.865V107H407.465ZM413.199 107V97.2H414.599V105.782H419.905V107H413.199ZM424.185 101.428H429.225V102.618H424.185V101.428ZM424.311 105.782H430.023V107H422.911V97.2H429.827V98.418H424.311V105.782ZM436.546 107.112C435.8 107.112 435.086 107 434.404 106.776C433.723 106.543 433.186 106.244 432.794 105.88L433.312 104.788C433.686 105.115 434.162 105.385 434.74 105.6C435.319 105.815 435.921 105.922 436.546 105.922C437.116 105.922 437.578 105.857 437.932 105.726C438.287 105.595 438.548 105.418 438.716 105.194C438.884 104.961 438.968 104.699 438.968 104.41C438.968 104.074 438.856 103.803 438.632 103.598C438.418 103.393 438.133 103.229 437.778 103.108C437.433 102.977 437.05 102.865 436.63 102.772C436.21 102.679 435.786 102.571 435.356 102.45C434.936 102.319 434.549 102.156 434.194 101.96C433.849 101.764 433.569 101.503 433.354 101.176C433.14 100.84 433.032 100.411 433.032 99.888C433.032 99.384 433.163 98.922 433.424 98.502C433.695 98.0727 434.106 97.732 434.656 97.48C435.216 97.2187 435.926 97.088 436.784 97.088C437.354 97.088 437.918 97.1627 438.478 97.312C439.038 97.4613 439.524 97.676 439.934 97.956L439.472 99.076C439.052 98.796 438.609 98.5953 438.142 98.474C437.676 98.3433 437.223 98.278 436.784 98.278C436.234 98.278 435.781 98.348 435.426 98.488C435.072 98.628 434.81 98.8147 434.642 99.048C434.484 99.2813 434.404 99.5427 434.404 99.832C434.404 100.177 434.512 100.453 434.726 100.658C434.95 100.863 435.235 101.027 435.58 101.148C435.935 101.269 436.322 101.381 436.742 101.484C437.162 101.577 437.582 101.685 438.002 101.806C438.432 101.927 438.819 102.086 439.164 102.282C439.519 102.478 439.804 102.739 440.018 103.066C440.233 103.393 440.34 103.813 440.34 104.326C440.34 104.821 440.205 105.283 439.934 105.712C439.664 106.132 439.244 106.473 438.674 106.734C438.114 106.986 437.405 107.112 436.546 107.112Z" fill="#3B82F6"/>
<defs>
<linearGradient id="paint0_linear_4_27" x1="108.717" y1="11.6843" x2="19.8362" y2="132.363" gradientUnits="userSpaceOnUse">
<stop offset="0.192308" stop-color="#A855F7"/>
<stop offset="0.350962" stop-color="#7C3AED"/>
<stop offset="0.620192" stop-color="#1D4ED8"/>
<stop offset="0.850962" stop-color="#3B82F6"/>
</linearGradient>
</defs>
</svg>
